<?xml version="1.0" encoding="utf-8"?>
<!-- Generator: Adobe Illustrator 16.0.0, SVG Export Plug-In . SVG Version: 6.00 Build 0)  -->
<!DOCTYPE svg PUBLIC "-//W3C//DTD SVG 1.1//EN" "http://www.w3.org/Graphics/SVG/1.1/DTD/svg11.dtd">
<svg version="1.1" id="Capa_1" xmlns="http://www.w3.org/2000/svg" xmlns:xlink="http://www.w3.org/1999/xlink" x="0px" y="0px"
	 width="960px" height="560px" viewBox="0 0 960 560" enable-background="new 0 0 960 560" xml:space="preserve">
<g id="g3226" transform="matrix(0.6782175,0,0,0.6782175,17.59092,-9.1912916)">
	<path id="path3159" fill="#FF2A2A" d="M614.068,372.148c0,0-10,7.143-7.143,17.857c2.857,10.714,10.714,9.286,10.714,13.572
		c0,4.285-5.715,8.571-5.715,8.571s10-2.143,10-7.857s8.572-0.714,8.572-0.714s-5.714-5.715-11.428-7.143s-7.858-7.143-7.143-12.857
		c0.715-5.714,6.429-5.714,6.429-5.714L614.068,372.148z"/>
	<path id="path2383" sodipodi:nodetypes="cccccccccccc" fill="#88AA00" stroke="#668000" stroke-width="3" d="M594.067,345.72
		l40,52.857l40-33.572l-7.143,146.429l-54.286-5.714v61.427h161.428l-9.999-68.571l-44.285,5.715l27.142-195.715l-55.714-18.572
		L594.067,345.72z"/>
	
		<path id="path3155" sodipodi:open="true" sodipodi:end="6.2832186" sodipodi:start="3.3369056e-05" sodipodi:ry="18.571428" sodipodi:rx="18.571428" sodipodi:cy="223.07646" sodipodi:cx="216.42857" sodipodi:type="arc" fill="#E6E6E6" stroke="#668000" stroke-width="3" d="
		M686.924,305.006L686.924,305.006"/>
	
		<path id="path3157" sodipodi:open="true" sodipodi:end="6.2832186" sodipodi:start="3.3369056e-05" sodipodi:ry="18.571428" sodipodi:rx="18.571428" sodipodi:cy="223.07646" sodipodi:cx="216.42857" sodipodi:type="arc" fill="#E6E6E6" stroke="#668000" stroke-width="3" d="
		M728.801,329.292L728.801,329.292"/>
	<path id="path3161" fill="none" stroke="#668000" stroke-width="2" d="M605.496,338.576l27.857,34.286"/>
	<path id="path3163" fill="none" stroke="#668000" stroke-width="2" d="M620.496,329.291l22.143,30.714"/>
	<path id="path3165" fill="none" stroke="#668000" stroke-width="2" d="M635.496,321.434l22.857,28.571"/>
	<path id="path3167" fill="none" stroke="#668000" stroke-width="2" d="M702.639,382.148c2.857,0,35.714,0,35.714,0"/>
	<path id="path3169" fill="none" stroke="#668000" stroke-width="2" d="M709.067,398.577l25.001-0.715l0,0l0,0"/>
	<path id="path3171" fill="none" stroke="#668000" stroke-width="2" d="M696.21,414.291h37.142"/>
	<path id="path3173" fill="none" stroke="#668000" stroke-width="2" d="M701.211,430.005l29.285,1.428"/>
	<path id="path3175" fill="none" stroke="#668000" stroke-width="2" d="M694.782,445.72c3.572,0,34.285,0.714,34.285,0.714l0,0l0,0"
		/>
	<path id="path3177" fill="none" stroke="#668000" stroke-width="2" d="M703.353,458.577h24.285"/>
	<path id="path3179" fill="none" stroke="#668000" stroke-width="2" d="M691.925,475.719l32.143-2.143"/>
	<path id="path3181" fill="none" stroke="#668000" stroke-width="2" d="M698.354,487.863l22.143-0.714"/>
	<g id="g3189" transform="matrix(0.8514851,0,0,0.8514851,3.178926,9.3041433)">
		
			<path id="path3183" sodipodi:open="true" sodipodi:end="6.2832186" sodipodi:start="3.3369056e-05" sodipodi:ry="9.8214283" sodipodi:rx="9.8214283" sodipodi:cy="232.18361" sodipodi:cx="246.25" sodipodi:type="arc" fill="#445500" stroke="#222B00" stroke-width="2" d="
			M796.048,343.503L796.048,343.503"/>
		
			<path id="path3185" sodipodi:open="true" sodipodi:end="6.2832186" sodipodi:start="3.3369056e-05" sodipodi:ry="4.1071429" sodipodi:rx="4.1071429" sodipodi:cy="232.18361" sodipodi:cx="246.25" sodipodi:type="arc" fill="#222B00" d="
			M790.334,343.502L790.334,343.502"/>
		
			<path id="path3187" sodipodi:open="true" sodipodi:end="6.2832186" sodipodi:start="3.3369056e-05" sodipodi:ry="1.7857143" sodipodi:rx="1.7857143" sodipodi:cy="228.79076" sodipodi:cx="249.64285" sodipodi:type="arc" fill="#CDDE87" d="
			M791.405,341.181L791.405,341.181"/>
	</g>
	<g id="g3194" transform="matrix(1.1485149,0,0,1.1485149,-31.21464,-31.268429)">
		
			<path id="path3196" sodipodi:open="true" sodipodi:end="6.2832186" sodipodi:start="3.3369056e-05" sodipodi:ry="9.8214283" sodipodi:rx="9.8214283" sodipodi:cy="232.18361" sodipodi:cx="246.25" sodipodi:type="arc" fill="#445500" stroke="#222B00" stroke-width="2" d="
			M656.398,314.713L656.398,314.713"/>
		
			<path id="path3198" sodipodi:open="true" sodipodi:end="6.2832186" sodipodi:start="3.3369056e-05" sodipodi:ry="4.1071429" sodipodi:rx="4.1071429" sodipodi:cy="232.18361" sodipodi:cx="246.25" sodipodi:type="arc" fill="#222B00" d="
			M650.684,314.713L650.684,314.713"/>
		
			<path id="path3200" sodipodi:open="true" sodipodi:end="6.2832186" sodipodi:start="3.3369056e-05" sodipodi:ry="1.7857143" sodipodi:rx="1.7857143" sodipodi:cy="228.79076" sodipodi:cx="249.64285" sodipodi:type="arc" fill="#CDDE87" d="
			M651.755,312.391L651.755,312.391"/>
	</g>
	<path id="path3202" fill="none" stroke="#668000" stroke-width="2" d="M757.424,530.553c0.047,2.857,0.593,35.709,0.593,35.709"/>
	<path id="path3204" fill="none" stroke="#668000" stroke-width="2" d="M741.105,540.284l1.129,24.985l0,0l0,0"/>
	<path id="path3206" fill="none" stroke="#668000" stroke-width="2" d="M725.433,529.963l0.616,37.138"/>
	<path id="path3208" fill="none" stroke="#668000" stroke-width="2" d="M709.551,536.485l-0.942,29.305"/>
	<path id="path3218" fill="none" stroke="#668000" stroke-width="2" d="M681.663,529.542c0.048,2.857,0.593,35.709,0.593,35.709"/>
	<path id="path3220" fill="none" stroke="#668000" stroke-width="2" d="M665.343,539.273l1.13,24.985l0,0l0,0"/>
	<path id="path3222" fill="none" stroke="#668000" stroke-width="2" d="M649.671,528.952l0.616,37.138"/>
	<path id="path3224" fill="none" stroke="#668000" stroke-width="2" d="M633.788,535.474l-0.942,29.305"/>
</g>
</svg>
