<svg id="2a9fc26d-4c12-4aed-b826-80279df89dee" data-name="Layer 1" xmlns="http://www.w3.org/2000/svg" viewBox="0 0 500 500"><title>Artboard 5 copy 6</title><polygon points="163.87 329.84 163.87 321.75 171.96 321.75 171.96 313.66 163.87 313.66 163.87 293.44 155.78 293.44 155.78 329.84 139.6 329.84 139.6 337.93 180.04 337.93 180.04 329.84 163.87 329.84" style="fill:#fa962a"/><polygon points="139.6 329.84 139.6 321.75 147.69 321.75 147.69 313.66 139.6 313.66 139.6 293.44 131.51 293.44 131.51 329.84 115.34 329.84 115.34 337.93 155.78 337.93 155.78 329.84 139.6 329.84" style="fill:#fcac2b"/><polygon points="58.72 143.81 30.41 155.94 58.72 168.07 78.94 168.07 78.94 143.81 58.72 143.81" style="fill:#fdb62f"/><path d="M232.62,123.59h0A70.44,70.44,0,0,0,169,163.75l-21.32,44.77-31.9-67a30.76,30.76,0,0,0-25.48-17.89,29.75,29.75,0,0,0-31.53,27.85c0,.62-.06,1.23-.06,1.85v61.24a87,87,0,0,0,86.95,86.95c48,0,87-44.49,87-80.88h0A32.35,32.35,0,0,0,265,188.29H232.62A32.35,32.35,0,0,0,265,155.94H232.62A32.35,32.35,0,0,0,265,123.59Z" style="fill:#e5e5e5"/><path d="M103.21,99.32h20.22a24.27,24.27,0,0,1-24.27,24.27H78.94A24.27,24.27,0,0,1,103.21,99.32Z" style="fill:#de4c3c"/><circle cx="87.03" cy="151.9" r="8.09" style="fill:#de4c3c"/><path d="M44.57,208.52h0a14.16,14.16,0,0,0,14.15-14.16V168.07l-21.18,12.1a14.15,14.15,0,0,0-7.13,12.29v1.9A14.16,14.16,0,0,0,44.57,208.52Z" style="fill:#de4c3c"/><path d="M265,155.94H232.62A32.35,32.35,0,0,0,265,123.59H232.15C219.78,239.06,132,266,80.28,271.77a86.68,86.68,0,0,0,65.39,29.76c48,0,87-44.49,87-80.88A32.35,32.35,0,0,0,265,188.29H232.62A32.35,32.35,0,0,0,265,155.94Z" style="fill:#dedede"/><path d="M163.58,281.31H147.69A60.74,60.74,0,0,1,87,220.65V216.6h8.09v4.05a52.63,52.63,0,0,0,52.57,52.57h15.89A29.11,29.11,0,0,0,191.16,253H167.91v-8.09h11.85a29.11,29.11,0,0,0,27.58-20.22H159.82V216.6h57.24l-.66,4.62a37.06,37.06,0,0,1-15.73,25.25l-.44,3.06A37.2,37.2,0,0,1,163.58,281.31Z" style="fill:#d1d1d1"/><path d="M129.74,371.67a19.88,19.88,0,0,0,0,39.76h99.38l-60.66-39.76Z" style="fill:#683b1a"/><path d="M366.55,372.17l8.34-66.75h-53v92.76a13.26,13.26,0,0,0,13.26,13.25h49.3c10.16,0,16.73-11.09,11.6-19.86A39.88,39.88,0,0,0,366.55,372.17Z" style="fill:#d1d8dc"/><path d="M457.5,146.4H444.36a39.75,39.75,0,0,1-28.11-11.65l-16.46-16.46a39.75,39.75,0,0,0-28.11-11.65H325.1A39.74,39.74,0,0,0,297,118.29l-1.61,1.61V228.55s-77.65,44.75-101.33,60.61c-1.49.94-2.9,1.95-4.31,3a65.93,65.93,0,0,0-25.88,64.61c4.67,27.25,27,49.39,54.27,53.77a66.33,66.33,0,0,0,72.6-41,17.24,17.24,0,0,1,15.95-11.17h28.46a67.3,67.3,0,0,0,13.3-1.35c26.27-5.29,47.42-26.9,51.95-53.31a65.86,65.86,0,0,0-25.5-64.3v-26.8h39.75c14.58,0,32.64-10.23,40.14-22.73l14.08-23.46A13.25,13.25,0,0,0,457.5,146.4Z" style="fill:#aa7135"/><circle cx="388.14" cy="146.37" r="9.94" style="fill:#010101"/><path d="M296.75,118.53l-31,31a34.48,34.48,0,0,0-10.1,24.39v10.74c0,19.23,13,36.85,31.88,40.47a39.8,39.8,0,0,0,47.63-39V106.64h-9.7A40.58,40.58,0,0,0,296.75,118.53Z" style="fill:#010101"/><path d="M295.18,411.43H232.51a39.76,39.76,0,0,1,74.56-19.22C311.84,400.83,305,411.43,295.18,411.43Z" style="fill:#d1d8dc"/><path d="M255.63,278.91a66.46,66.46,0,0,0-13.25,1.34,65.68,65.68,0,0,1,26.33,12.08l-.19-.16h.36c0,.1,0,.2,0,.3a65.2,65.2,0,0,1,19.71,81.36c.69-1.43,1.52-2.77,2.11-4.24a17.25,17.25,0,0,1,15.95-11.17h13.87a66.25,66.25,0,0,0-64.92-79.51Z" style="fill:#9b6534"/><path d="M457.5,146.4H444.36a39.75,39.75,0,0,1-28.11-11.65l-16.47-16.46s0,0,0-.05a65.42,65.42,0,0,1-12,94.42h26.86c14.58,0,32.65-10.23,40.14-22.73l14.08-23.46A13.25,13.25,0,0,0,457.5,146.4Z" style="fill:#d1d8dc"/><path d="M268.88,292.16c0,.12,0,.22,0,.33l-.14-.12-.25-.21Z" style="fill:#aa7135"/><path d="M457.5,146.4H444.36c-.46,0-.91-.12-1.37-.14a18.48,18.48,0,0,0,22.61,25.63l3.26-5.42A13.25,13.25,0,0,0,457.5,146.4Z" style="fill:#010101"/></svg>