<?xml version="1.0" encoding="iso-8859-1"?>
<!-- Generator: Adobe Illustrator 19.1.1, SVG Export Plug-In . SVG Version: 6.00 Build 0)  -->
<svg version="1.1" id="Layer_1" xmlns="http://www.w3.org/2000/svg" xmlns:xlink="http://www.w3.org/1999/xlink" x="0px" y="0px"
	 viewBox="0 0 48 48" style="enable-background:new 0 0 48 48;" xml:space="preserve">
<path style="fill:#9C27B0;" d="M24,6C11.85,6,2,14.059,2,24c0,9.941,9.85,18,22,18s22-8.059,22-18C46,14.059,36.15,6,24,6z M24,29
	c-6.075,0-11-3.358-11-7.5S17.925,14,24,14s11,3.358,11,7.5S30.075,29,24,29z"/>
<path style="fill:#7B1FA2;" d="M24,38C12.171,38,2.525,31.997,2.024,23.217C2.011,23.477,2,23.737,2,24c0,9.941,9.85,18,22,18
	s22-8.059,22-18c0-0.263-0.011-0.523-0.024-0.783C45.475,31.997,35.829,38,24,38z"/>
<path style="fill:#FFC107;" d="M13.9,18.53C13.604,17.477,12.44,14,8,14c-1.599,0-2.976,0.852-3.822,2.183
	C7.734,10.157,15.273,6,24,6v8C19.473,14,15.588,15.866,13.9,18.53z"/>
<path style="fill:#43A047;" d="M34.1,18.53C34.396,17.477,35.56,14,40,14c1.599,0,2.976,0.852,3.822,2.183
	C40.266,10.157,32.727,6,24,6v8C28.527,14,32.412,15.866,34.1,18.53z"/>
<path style="fill:#2196F3;" d="M43.731,16.056C42.879,14.8,41.546,14,40,14c-4.44,0-5.604,3.477-5.9,4.53
	c-0.009-0.014-0.022-0.027-0.031-0.041C34.664,19.411,35,20.428,35,21.5c0,2.737-2.157,5.124-5.368,6.434
	C31.182,27.833,35.204,27.985,37,32c1.371,3.064,0.456,5.408-0.946,7.055C42.043,35.839,46,30.299,46,24
	C46,21.146,45.177,18.453,43.731,16.056z"/>
<path style="fill:#1976D2;" d="M37.659,34.838c0.025,1.715-0.674,3.123-1.605,4.217l0,0c0.748-0.402,1.465-0.84,2.146-1.312
	c0.001,0,0.001-0.001,0.002-0.001c0.325-0.225,0.641-0.459,0.95-0.699c0.027-0.021,0.055-0.043,0.082-0.064
	c0.938-0.737,1.795-1.54,2.562-2.402c0.032-0.036,0.064-0.073,0.096-0.11c0.215-0.245,0.422-0.495,0.622-0.749
	c0.041-0.052,0.082-0.104,0.122-0.156c0.211-0.275,0.414-0.554,0.607-0.838c0.012-0.018,0.025-0.035,0.037-0.052
	c0.211-0.313,0.41-0.631,0.598-0.954c0.016-0.028,0.031-0.057,0.047-0.085c0.16-0.278,0.31-0.561,0.452-0.847
	c0.041-0.083,0.08-0.166,0.12-0.249c0.116-0.243,0.226-0.489,0.329-0.738c0.036-0.088,0.074-0.175,0.109-0.263
	c0.116-0.294,0.224-0.592,0.322-0.892c0.011-0.035,0.025-0.068,0.036-0.103c0.107-0.336,0.2-0.676,0.283-1.018
	c0.021-0.089,0.039-0.178,0.058-0.267c0.057-0.254,0.108-0.51,0.152-0.768c0.019-0.115,0.037-0.23,0.054-0.346
	c0.036-0.247,0.065-0.496,0.088-0.747c0.01-0.108,0.022-0.216,0.03-0.325C45.983,24.715,46,24.359,46,24
	c0-0.254-0.014-0.506-0.027-0.758C45.681,28.179,42.496,32.236,37.659,34.838z"/>
<path style="fill:#2E7D32;" d="M25.822,14.11c0.473,0.054,0.938,0.123,1.388,0.217c0.057,0.012,0.111,0.028,0.167,0.04
	c0.404,0.089,0.796,0.195,1.178,0.315c0.102,0.032,0.205,0.062,0.305,0.096c0.406,0.137,0.798,0.288,1.173,0.457
	c0.087,0.039,0.168,0.082,0.253,0.123c0.306,0.146,0.599,0.302,0.88,0.468c0.093,0.054,0.187,0.106,0.277,0.163
	c0.315,0.198,0.612,0.409,0.891,0.631c0.096,0.076,0.184,0.155,0.275,0.234c0.204,0.176,0.396,0.358,0.577,0.547
	c0.078,0.081,0.162,0.16,0.236,0.243c0.21,0.239,0.396,0.488,0.567,0.743c0.033,0.05,0.079,0.094,0.11,0.144
	c0.056-0.2,0.144-0.488,0.28-0.823C32.883,14.387,28.807,12,24,12v2c0.505,0,0.997,0.031,1.484,0.076
	C25.597,14.087,25.71,14.097,25.822,14.11z"/>
<path style="fill:#FFA000;" d="M13.62,17.707c0.135,0.335,0.224,0.623,0.28,0.823c0.032-0.05,0.077-0.095,0.11-0.144
	c0.171-0.255,0.357-0.504,0.567-0.743c0.074-0.084,0.157-0.162,0.236-0.243c0.181-0.188,0.373-0.371,0.577-0.547
	c0.091-0.078,0.179-0.158,0.275-0.234c0.279-0.222,0.576-0.433,0.891-0.631c0.09-0.056,0.185-0.108,0.277-0.163
	c0.282-0.166,0.575-0.322,0.881-0.468c0.085-0.04,0.166-0.084,0.252-0.123c0.375-0.169,0.768-0.32,1.174-0.457
	c0.1-0.034,0.203-0.064,0.305-0.096c0.382-0.119,0.774-0.226,1.178-0.315c0.056-0.012,0.11-0.028,0.167-0.04
	c0.45-0.094,0.915-0.163,1.388-0.217c0.112-0.013,0.225-0.023,0.338-0.034C23.003,14.031,23.495,14,24,14v-2
	C19.193,12,15.117,14.387,13.62,17.707z"/>
<path style="fill:#FF3D00;" d="M4.269,16.056C5.121,14.8,6.454,14,8,14c4.44,0,5.604,3.477,5.9,4.53
	c0.009-0.014,0.022-0.027,0.031-0.041C13.336,19.411,13,20.428,13,21.5c0,2.737,2.157,5.124,5.368,6.434
	C16.818,27.833,12.796,27.985,11,32c-1.371,3.064-0.456,5.408,0.946,7.055C5.957,35.839,2,30.299,2,24
	C2,21.146,2.823,18.453,4.269,16.056z"/>
<path style="fill:#DD2C00;" d="M13.035,21.031c0.001-0.007,0.003-0.014,0.003-0.021c0.021-0.222,0.057-0.441,0.107-0.657
	c0.007-0.032,0.015-0.063,0.022-0.095c0.049-0.199,0.109-0.395,0.181-0.588c0.02-0.054,0.042-0.108,0.064-0.161
	c0.069-0.17,0.144-0.337,0.229-0.502c0.041-0.08,0.087-0.157,0.132-0.236c0.054-0.094,0.099-0.19,0.158-0.282
	c-0.009,0.014-0.022,0.027-0.031,0.041c-0.056-0.2-0.144-0.488-0.28-0.823C13.225,18.583,13,19.52,13,20.5
	C13,20.679,13.021,20.855,13.035,21.031z"/>
<path style="fill:#1976D2;" d="M34.069,18.49c0.059,0.092,0.104,0.189,0.158,0.282c0.045,0.078,0.091,0.156,0.132,0.236
	c0.086,0.165,0.16,0.332,0.229,0.502c0.022,0.054,0.044,0.107,0.064,0.161c0.072,0.193,0.132,0.389,0.181,0.588
	c0.008,0.032,0.015,0.063,0.022,0.095c0.049,0.216,0.085,0.435,0.107,0.657c0.001,0.007,0.003,0.014,0.003,0.021
	C34.979,20.855,35,20.679,35,20.5c0-0.98-0.225-1.917-0.62-2.793c-0.135,0.335-0.224,0.623-0.28,0.823
	C34.091,18.516,34.078,18.504,34.069,18.49z"/>
<path style="fill:#DD2C00;" d="M2.072,25.393c0.023,0.25,0.052,0.499,0.088,0.747c0.017,0.116,0.034,0.231,0.054,0.346
	C2.258,26.744,2.309,27,2.366,27.255c0.02,0.089,0.037,0.179,0.058,0.267c0.083,0.343,0.177,0.683,0.283,1.018
	c0.011,0.035,0.025,0.068,0.036,0.103c0.098,0.301,0.206,0.598,0.322,0.892c0.035,0.088,0.072,0.175,0.109,0.263
	c0.103,0.248,0.213,0.494,0.329,0.738c0.04,0.083,0.079,0.167,0.12,0.249c0.142,0.286,0.293,0.568,0.452,0.847
	c0.016,0.028,0.031,0.057,0.047,0.085c0.188,0.323,0.388,0.642,0.598,0.954c0.012,0.018,0.025,0.035,0.037,0.052
	c0.193,0.284,0.396,0.563,0.607,0.838c0.04,0.052,0.081,0.104,0.122,0.156c0.2,0.254,0.407,0.504,0.622,0.749
	c0.032,0.037,0.063,0.074,0.096,0.11c0.767,0.862,1.625,1.665,2.562,2.402c0.027,0.021,0.055,0.043,0.082,0.064
	c0.309,0.24,0.625,0.474,0.95,0.699c0.001,0,0.001,0.001,0.002,0.001c0.681,0.471,1.398,0.91,2.146,1.312l0,0
	c-0.931-1.094-1.63-2.502-1.605-4.217c-4.838-2.602-8.022-6.659-8.314-11.596C2.014,23.494,2,23.746,2,24
	c0,0.359,0.017,0.715,0.042,1.069C2.05,25.177,2.062,25.285,2.072,25.393z"/>
</svg>
