<?xml version="1.0" encoding="utf-8"?>
<!-- Generator: Adobe Illustrator 16.0.0, SVG Export Plug-In . SVG Version: 6.00 Build 0)  -->
<!DOCTYPE svg PUBLIC "-//W3C//DTD SVG 1.1//EN" "http://www.w3.org/Graphics/SVG/1.1/DTD/svg11.dtd">
<svg version="1.1"
	 id="svg2" xmlns:dc="http://purl.org/dc/elements/1.1/" xmlns:cc="http://creativecommons.org/ns#" xmlns:rdf="http://www.w3.org/1999/02/22-rdf-syntax-ns#" xmlns:svg="http://www.w3.org/2000/svg" xmlns:sodipodi="http://sodipodi.sourceforge.net/DTD/sodipodi-0.dtd" xmlns:inkscape="http://www.inkscape.org/namespaces/inkscape" inkscape:output_extension="org.inkscape.output.svg.inkscape" sodipodi:docname="numbers.svg" inkscape:version="0.46" sodipodi:version="0.32"
	 xmlns="http://www.w3.org/2000/svg" xmlns:xlink="http://www.w3.org/1999/xlink" x="0px" y="0px" width="130.41px"
	 height="198.61px" viewBox="76.333 97.667 130.41 198.61" enable-background="new 76.333 97.667 130.41 198.61"
	 xml:space="preserve">
<defs>
	
	
		<inkscape:perspective  id="perspective10" inkscape:vp_z="744.09448 : 526.18109 : 1" inkscape:vp_y="0 : 1000 : 0" inkscape:vp_x="0 : 526.18109 : 1" sodipodi:type="inkscape:persp3d" inkscape:persp3d-origin="372.04724 : 350.78739 : 1">
		</inkscape:perspective>
</defs>
<sodipodi:namedview  showgrid="false" inkscape:cy="391.89996" inkscape:cx="383.4985" inkscape:zoom="0.35" objecttolerance="10" guidetolerance="10" gridtolerance="10000" borderopacity="1.0" bordercolor="#666666" pagecolor="#ffffff" id="base" inkscape:window-y="0" inkscape:window-x="0" inkscape:window-height="840" inkscape:window-width="803" inkscape:current-layer="layer1" inkscape:document-units="px" inkscape:pageshadow="2" inkscape:pageopacity="0.0">
	</sodipodi:namedview>
<g id="g3226" transform="matrix(0.6782175,0,0,0.6782175,17.59092,-9.1912916)">
	<path id="path3159" fill="#FF2A2A" d="M112.755,247.55c0,0-10,7.143-7.142,17.857c2.857,10.714,10.714,9.286,10.714,13.572
		c0,4.285-5.715,8.571-5.715,8.571s10-2.143,10-7.857s8.572-0.714,8.572-0.714s-5.715-5.715-11.428-7.143
		c-5.715-1.428-7.858-7.143-7.143-12.857c0.714-5.714,6.429-5.714,6.429-5.714L112.755,247.55z"/>
	<path id="path2383" sodipodi:nodetypes="cccccccccccc" fill="#88AA00" stroke="#668000" stroke-width="3" d="M92.754,221.121
		l40,52.857l40-33.572l-7.143,146.429l-54.286-5.714v61.428h161.428l-10-68.571l-44.285,5.714l27.143-195.714l-55.714-18.572
		L92.754,221.121z"/>
	
		<path id="path3155" sodipodi:open="true" sodipodi:end="6.2832186" sodipodi:start="3.3369056e-05" sodipodi:ry="18.571428" sodipodi:rx="18.571428" sodipodi:cy="223.07646" sodipodi:cx="216.42857" sodipodi:type="arc" fill="#E6E6E6" stroke="#668000" stroke-width="3" d="
		M185.612,180.407L185.612,180.407"/>
	
		<path id="path3157" sodipodi:open="true" sodipodi:end="6.2832186" sodipodi:start="3.3369056e-05" sodipodi:ry="18.571428" sodipodi:rx="18.571428" sodipodi:cy="223.07646" sodipodi:cx="216.42857" sodipodi:type="arc" fill="#E6E6E6" stroke="#668000" stroke-width="3" d="
		M227.488,204.693L227.488,204.693"/>
	<path id="path3161" fill="none" stroke="#668000" stroke-width="2" d="M104.183,213.978l27.858,34.286"/>
	<path id="path3163" fill="none" stroke="#668000" stroke-width="2" d="M119.184,204.693l22.143,30.714"/>
	<path id="path3165" fill="none" stroke="#668000" stroke-width="2" d="M134.183,196.835l22.857,28.571"/>
	<path id="path3167" fill="none" stroke="#668000" stroke-width="2" d="M201.327,257.55c2.857,0,35.714,0,35.714,0"/>
	<path id="path3169" fill="none" stroke="#668000" stroke-width="2" d="M207.755,273.978l25.001-0.715l0,0l0,0"/>
	<path id="path3171" fill="none" stroke="#668000" stroke-width="2" d="M194.898,289.693h37.142"/>
	<path id="path3173" fill="none" stroke="#668000" stroke-width="2" d="M199.897,305.407l29.286,1.428"/>
	<path id="path3175" fill="none" stroke="#668000" stroke-width="2" d="M193.469,321.121c3.571,0,34.285,0.714,34.285,0.714l0,0l0,0
		"/>
	<path id="path3177" fill="none" stroke="#668000" stroke-width="2" d="M202.041,333.978h24.285"/>
	<path id="path3179" fill="none" stroke="#668000" stroke-width="2" d="M190.613,351.121l32.143-2.143"/>
	<path id="path3181" fill="none" stroke="#668000" stroke-width="2" d="M197.04,363.264l22.143-0.715"/>
	<g id="g3189" transform="matrix(0.8514851,0,0,0.8514851,3.178926,9.3041433)">
		
			<path id="path3183" sodipodi:open="true" sodipodi:end="6.2832186" sodipodi:start="3.3369056e-05" sodipodi:ry="9.8214283" sodipodi:rx="9.8214283" sodipodi:cy="232.18361" sodipodi:cx="246.25" sodipodi:type="arc" fill="#445500" stroke="#222B00" stroke-width="2" d="
			M207.297,197.172L207.297,197.172"/>
		
			<path id="path3185" sodipodi:open="true" sodipodi:end="6.2832186" sodipodi:start="3.3369056e-05" sodipodi:ry="4.1071429" sodipodi:rx="4.1071429" sodipodi:cy="232.18361" sodipodi:cx="246.25" sodipodi:type="arc" fill="#222B00" d="
			M201.583,197.171L201.583,197.171"/>
		
			<path id="path3187" sodipodi:open="true" sodipodi:end="6.2832186" sodipodi:start="3.3369056e-05" sodipodi:ry="1.7857143" sodipodi:rx="1.7857143" sodipodi:cy="228.79076" sodipodi:cx="249.64285" sodipodi:type="arc" fill="#CDDE87" d="
			M202.654,194.85L202.654,194.85"/>
	</g>
	<g id="g3194" transform="matrix(1.1485149,0,0,1.1485149,-31.21464,-31.268429)">
		
			<path id="path3196" sodipodi:open="true" sodipodi:end="6.2832186" sodipodi:start="3.3369056e-05" sodipodi:ry="9.8214283" sodipodi:rx="9.8214283" sodipodi:cy="232.18361" sodipodi:cx="246.25" sodipodi:type="arc" fill="#445500" stroke="#222B00" stroke-width="2" d="
			M219.91,206.226L219.91,206.226"/>
		
			<path id="path3198" sodipodi:open="true" sodipodi:end="6.2832186" sodipodi:start="3.3369056e-05" sodipodi:ry="4.1071429" sodipodi:rx="4.1071429" sodipodi:cy="232.18361" sodipodi:cx="246.25" sodipodi:type="arc" fill="#222B00" d="
			M214.196,206.226L214.196,206.226"/>
		
			<path id="path3200" sodipodi:open="true" sodipodi:end="6.2832186" sodipodi:start="3.3369056e-05" sodipodi:ry="1.7857143" sodipodi:rx="1.7857143" sodipodi:cy="228.79076" sodipodi:cx="249.64285" sodipodi:type="arc" fill="#CDDE87" d="
			M215.268,203.904L215.268,203.904"/>
	</g>
	<path id="path3202" fill="none" stroke="#668000" stroke-width="2" d="M256.112,405.953c0.048,2.857,0.593,35.709,0.593,35.709"/>
	<path id="path3204" fill="none" stroke="#668000" stroke-width="2" d="M239.792,415.685l1.129,24.984l0,0l0,0"/>
	<path id="path3206" fill="none" stroke="#668000" stroke-width="2" d="M224.119,405.363l0.616,37.138"/>
	<path id="path3208" fill="none" stroke="#668000" stroke-width="2" d="M208.237,411.886l-0.942,29.306"/>
	<path id="path3218" fill="none" stroke="#668000" stroke-width="2" d="M180.35,404.943c0.048,2.857,0.593,35.709,0.593,35.709"/>
	<path id="path3220" fill="none" stroke="#668000" stroke-width="2" d="M164.031,414.674l1.129,24.985l0,0l0,0"/>
	<path id="path3222" fill="none" stroke="#668000" stroke-width="2" d="M148.357,404.353l0.616,37.138"/>
	<path id="path3224" fill="none" stroke="#668000" stroke-width="2" d="M132.475,410.876l-0.942,29.306"/>
</g>
</svg>
